<?xml version="1.0" encoding="UTF-8"?>
<svg id="Layer_1" xmlns="http://www.w3.org/2000/svg" version="1.1" viewBox="0 0 79.01 44.97">
  <!-- Generator: Adobe Illustrator 29.8.1, SVG Export Plug-In . SVG Version: 2.1.1 Build 2)  -->
  <path d="M77.99,23.97l-10.75,3.73c-19.59,2-37.09-7.1-56.73-5.73-3.23.22-6.41,2.4-9.52,1.49,25.02-16.29,50.86,4.05,77.01.51Z"/>
  <path d="M75.99,6.97l-9.73,3.75C43.83,13.96,22.14-.46,0,6.95c23.28-17.55,50.69,4.19,75.99.02Z"/>
  <path d="M78.99,40.97c.24,1.44-1.73,1.35-2.78,1.69-19.44,6.32-32.53-2.19-50.73-3.69-6.82-.56-13.72.47-20.48.49,24-14.93,49.01,4.92,73.99,1.51Z"/>
</svg>