<?xml version="1.0" encoding="UTF-8"?>
<svg id="Layer_1" xmlns="http://www.w3.org/2000/svg" version="1.1" viewBox="0 0 792 391">
  <defs>
    <style>
      .st0 { fill: #e11418; }
      .st1 { fill: #1a1a1a; }  /* was currentColor */
      .st2 { fill: #e33232; }
      .st3 { fill: #d91c1e; }
      .st4 { fill: #e53c3d; }
      .st5 { fill: #d91b1d; }
      .st6 { fill: #1a1a1a; }  /* was currentColor */
      .st7 { fill: #1a1a1a; }  /* was currentColor */
      .st8 { fill: #e33034; }
      .st9 { fill: #e02122; }
      .st10 { fill: #df2a2b; }
      .st11 { fill: #de3532; }
      .st12 { fill: #e03535; }
      .st13 { fill: #e23b3e; }
      .st14 { fill: #e42e30; }
      .st15 { fill: #1a1a1a; } /* was currentColor */
    </style>
  </defs>

  <path class="st7" d="M388.36,35c7.45,5.94,14.26,12.62,20.92,19.42,1.74,1.71,3.55,3.31,5.4,4.91,4.27,3.72,8.39,7.57,12.5,11.47,7.22,6.82,14.49,13.59,21.81,20.31,1.04.96,2.08,1.91,3.12,2.87,8.2,7.53,16.44,15.01,24.83,22.33,3.19,2.8,6.33,5.64,9.48,8.48,1.71,1.54,3.43,3.08,5.16,4.62,2.49,2.22,4.96,4.46,7.42,6.71.71.65,1.43,1.29,2.16,1.96,11.16,10.56,15.83,22.01,17.71,36.92,2.83,20.34,7.64,38.11,21.36,53.98,1.86,2.26,3.31,4.61,4.76,7.15-6.68.42-12.66-1.16-19.12-2.75-8.43-2.01-16.86-3.94-25.38-5.56-.82-.16-1.63-.32-2.47-.48-34.04-6.38-70.41-2.59-102.87,8.81-12.49,4.37-22.96,6.03-36.16,4.98-.87-.06-1.74-.13-2.64-.19-9.53-.74-19.01-1.79-28.36-3.81v-3c2.44-1.95,4.85-3.7,7.44-5.44,1.58-1.08,3.15-2.17,4.73-3.25.81-.55,1.62-1.11,2.45-1.67,3.59-2.46,7.14-4.99,10.7-7.51,4.51-3.19,9.04-6.37,13.57-9.54,8.89-6.21,17.75-12.46,26.52-18.82,5.85-4.24,11.74-8.42,17.66-12.57,5.04-3.54,10.01-7.17,14.93-10.87,1.33-.89,2.67-1.33,4-1.33-2.64-5.17-5.77-9.1-9.68-13.38-2.63-2.97-5.07-6.05-7.51-9.19-4.04-5.2-8.15-10.34-12.31-15.44-5.07-6.21-10.05-12.49-15-18.8-2.91-3.71-5.83-7.42-8.82-11.06-1.12-1.42-2.09-2.78-2.9-4.08s-2.08-2.65-3.79-4.05c-7.53-1-15.08.49-22.44,2-1.09.22-2.18.44-3.3.66-3.07.62-6.14,1.26-9.2,1.91-2.19.46-4.38.92-6.57,1.38-3.98.83-7.96,1.69-11.94,2.55-1.56.34-3.11.67-4.67,1-12.19,2.09-23.09,6.55-32.68,13.37-3.41,6.08-5.8,12.5-7.64,19.2-3.76,13.02-11.55,21.61-22.68,28.91-1.25.69-2.55,1.03-3.88,1.03.2-.66.41-1.33.62-2.01.27-.88.54-1.77.82-2.68.27-.87.53-1.74.81-2.64,1.37-4.85,1.93-9.31,2-14.36.03-1.14.05-2.29.08-3.45-.11-.94-.22-1.89-.33-2.86-2.91-1.94-4.41-2.56-7.87-2.43-8.04,1.62-15,7.66-21.49,12.38-4.82,3.5-9.72,6.84-14.7,10.11-.71.48-1.43.95-2.16,1.45-3.56,2.32-6.44,4.08-10.77,4.49,1.44-8.96,5.14-16.87,9-25,.31-.65.61-1.3.93-1.96,18.7-38.79,57.96-53.22,95.12-69.91,4.88-2.19,9.75-4.41,14.62-6.64,3.52-1.61,7.04-3.21,10.56-4.81,1.68-.77,3.37-1.54,5.05-2.31,30.99-14.25,51.35-18.08,61.08-11.47v-.04Z"/>
  <path class="st7" d="M559,268.11c44.74,26.17,88.77,38.07,140.29,25.01,19.97-5.46,38.96-13.3,57.71-22.01.9-.42,1.8-.83,2.73-1.26,4.77-2.22,9.53-4.46,14.27-6.74,0,1.33-.45,2.46-1.36,3.38-.64.54-1.29,1.07-1.95,1.62-3.4,2.89-6.72,5.85-10,8.88-4.46,4.06-9.01,7.95-13.71,11.73-2.11,1.69-4.19,3.4-6.27,5.13-39.94,33.03-88.07,56.1-140.71,53.26-6.5-.69-12.74-2.18-19-4-.75-.21-1.5-.43-2.27-.65-17.28-5.06-32.46-13.06-47.91-22.2-8.11-4.79-16.26-9.22-24.81-13.15-1.17-.54-2.33-1.08-3.54-1.64-10.79-4.66-21.96-7.11-33.46-9.36-1.22-.25-2.43-.5-3.69-.75-55.28-9.32-110.4,14.11-160.28,34.91-9.65,4.02-19.32,8-29.03,11.85-.87.35-1.74.69-2.64,1.05-14.72,5.76-29.88,8.91-45.36,11.95-.79.18-1.57.37-2.38.56-3.47.59-6.91.66-10.43.72-.75.01-1.51.03-2.29.04-16.87.23-32.74.08-48.9-5.31-.89-.29-1.77-.58-2.68-.88-15.65-5.24-29.85-12.59-43.32-22.12,3.95-1.32,6.76-.2,10.62.88,23.54,6.53,51.87,4.82,75.38-.88.74-.17,1.48-.34,2.23-.52,24.39-5.78,47.88-15.45,70.77-25.48,2.3-1,4.59-1.99,6.89-2.99,1.18-.51,2.36-1.02,3.58-1.55,1.21-.52,2.42-1.05,3.66-1.59s2.48-1.08,3.73-1.62c4.05-1.76,8.1-3.51,12.15-5.26.76-.33,1.52-.66,2.3-1,80.2-34.68,165.02-69.31,249.7-20h-.02Z"/>
  <path class="st7" d="M273.4,254.39c8.36,5.04,16.78,9.55,25.6,13.72,2.67,1.32,5.34,2.66,8,4-3.26,2.71-6.6,4.24-10.5,5.86-.63.26-1.27.53-1.91.8-2.05.85-4.1,1.69-6.15,2.54-1.41.59-2.83,1.17-4.24,1.76-2.79,1.16-5.59,2.32-8.38,3.47-4.8,1.99-9.59,4-14.38,6.02-.74.31-1.48.62-2.24.94-3.44,1.44-6.86,2.92-10.24,4.48-.64.29-1.28.58-1.94.88-1.68.77-3.36,1.55-5.04,2.34-3.64,1.14-5.33,1.06-8.98-.07-2.9-1.52-5.63-3.28-8.38-5.06-38.86-24.41-81.35-30.39-126.19-20.38-28.91,6.83-56.82,17.86-83.37,31.09-.89.44-1.78.88-2.69,1.33-.78.39-1.55.78-2.35,1.18-1.35.56-3.02.84-5.02.84,6.33-5.87,12.75-11.51,19.47-16.93,2.13-1.74,4.18-3.53,6.22-5.38,11.23-9.88,23.78-18.26,36.31-26.39,1.7-1.1,3.39-2.22,5.08-3.34,67.69-43.46,133.17-44.87,201.32-3.68v-.02Z"/>
  <path class="st1" d="M536,148.11c7.05.86,13.91,3.03,20.69,5.06,2.13.63,4.26,1.26,6.38,1.89,1.12.33,2.25.67,3.4,1.01,5.54,1.64,11.09,3.24,16.64,4.85,3.28.95,6.57,1.9,9.85,2.86.66.19,1.32.38,2,.58,4.05,1.17,8.09,2.35,12.14,3.53,2.68.78,5.37,1.56,8.05,2.34l3.93,1.14c6.49,1.89,12.99,3.77,19.5,5.61.99.28,1.98.56,3,.85,1.82.51,3.63,1.02,5.45,1.53,3.91,1.1,6.24,2.02,6.98,2.76-.5,15.15-9.1,27.93-19.81,38.16-13.41,11.28-28.83,15.89-46.19,14.84-16.76-1.55-30.3-9.34-41.87-21.4-10.39-12.68-14.44-26.13-14.57-42.29-.01-1.06-.02-2.11-.03-3.2.12-10.55,1.61-17.25,4.47-20.11h0Z"/>
  <path class="st9" d="M625.94,116.36c1.72,1.21,3.4,2.46,5.06,3.75.85.65,1.7,1.29,2.57,1.96,11.16,9.21,19.2,22.66,21.43,37.04.07,2.44.09,4.88.06,7.31,0,1.25-.02,2.51-.03,3.8-.01.95-.02,1.91-.04,2.89-6.88-.55-13.17-2.36-19.77-4.34-4.3-1.28-8.61-2.53-12.92-3.79-1-.29-1.99-.58-3.02-.88-9.32-2.72-18.65-5.39-27.98-8.05-.75-.22-1.51-.43-2.29-.65-7.16-2.04-14.31-4.08-21.47-6.12-9.22-2.62-18.41-5.29-27.55-8.17,5.28-14.34,18.1-23.39,31.47-29.62,17.72-6.83,38.18-4.92,54.46,4.87h.02Z"/>
  <path class="st11" d="M652,151.11c3.3,4.95,3.12,9.46,3.06,15.31,0,1.25-.02,2.51-.03,3.8-.01.95-.02,1.91-.04,2.89-5.24-.55-9.97-1.43-15-3l2-1v-2c2.31-.33,4.65-.66,7-1,.51-1.56,1.01-3.12,1.5-4.69.28-.87.56-1.74.84-2.64.65-2.67.77-4.94.66-7.68h.01Z"/>
  <path class="st2" d="M614.69,157.99c1.18.02,2.36.04,3.57.05.91.02,1.82.04,2.74.07.66,1.65,1.32,3.3,2,5-3.97,1.32-6.81.18-10.69-.94-.7-.19-1.41-.39-2.13-.59-1.73-.48-3.46-.98-5.19-1.47,3.63-2.42,5.38-2.21,9.69-2.12h.01Z"/>
  <path class="st3" d="M650,150.11h2c1.27,6.47.69,9.98-2,16-.99-.33-1.98-.66-3-1,.11-2.13.24-4.25.38-6.38.07-1.18.14-2.37.21-3.59.27-2.03,1.08-3.71,2.41-5.04h0Z"/>
  <path class="st13" d="M583,110.11c-.99.33-1.98.66-3,1v3c-.63-.02-1.25-.05-1.9-.07-.82-.02-1.63-.04-2.48-.05-.81-.02-1.63-.04-2.46-.07-1.59-.01-2.97.72-4.16,2.2-1.75.08-3.41.08-5,0,3-2.46,5.86-3.91,9.5-5.25.94-.36,1.88-.71,2.84-1.08,2.73-.69,4.05-.63,6.66.33h0Z"/>
  <path class="st4" d="M582.26,148.25c.8.22,1.6.44,2.43.67.81.21,1.62.43,2.45.64.61.18,1.23.36,1.86.54-.33,1.32-.66,2.64-1,4-4.06-.47-7.47-.88-11-3,1.58-2.03,3.33-2.98,5.26-2.86h0Z"/>
  <path class="st5" d="M637,164.11h8v3h-3v2c-1.98-.33-3.98-.66-6-1l1-4Z"/>
  <path class="st12" d="M640,129.11c3.08,2.77,4.69,5.06,6,9h-6c.33-1.98.66-3.96,1-6l-2-1,1-2Z"/>
  <path class="st6" d="M773,263.11l1,2c-2.64,2.31-5.28,4.62-8,7-.99-1.32-1.98-2.64-3-4l10-5Z"/>
  <path class="st15" d="M16,300.11l2,1c-3.82,5.05-7.03,7.85-13,10l11-11Z"/>
  <path class="st8" d="M563,116.11v3c-.66.66-1.32,1.32-2,2h-3v2c-1.65.33-3.3.66-5,1,3.11-3.29,6.02-5.84,10-8Z"/>
  <path class="st14" d="M580,148.11c2.31.66,4.62,1.32,7,2-1.33,1.33-2.65,2.07-3.95,2.2-2.02-.07-4.04-.13-6.05-.2.99-1.32,1.98-2.64,3-4Z"/>
  <path class="st10" d="M609,110.11l8,2c-.33.66-.66,1.32-1,2-2.64-.33-5.28-.66-8-1,.33-.99.66-1.98,1-3Z"/>
  <path class="st0" d="M571,113.11c3.83.5,6.5,1.5,8,3h-8v-3Z"/>
</svg>